# xmcd
#
# Track frame offsets:
#	150
#	10873
#	22740
#	37415
#	52048
#	62433
#	75103
#	87100
#	98923
#	112733
#	126355
#	143630
#
# Disc length: 2064 seconds
#
# Revision: 0
# Processed by: cddbd v1.5.1PL0 Copyright (c) Steve Scherf et al.
# Submitted via: dBpowerAMP V4.0
#
DISCID=89080e0c
DTITLE=Blue Moon Special - The Scenic Route Through Hipsville
DYEAR=2000
DGENRE=Rock and Roll
TTITLE0=New Swing Thing
TTITLE1=Travelin' Man
TTITLE2=Record Machine
TTITLE3=Born To Be Kissed
TTITLE4=The Grapevine
TTITLE5=Skillfull Slaughter
TTITLE6=Jukebox Saturdaynight
TTITLE7=Rocky Road Blues
TTITLE8=No Nine (Number Nine)
TTITLE9=You Oughta See My Baby
TTITLE10=VooDoo
TTITLE11=Enough Of That Stuff
EXTD=
EXTT0=
EXTT1=
EXTT2=
EXTT3=
EXTT4=
EXTT5=
EXTT6=
EXTT7=
EXTT8=
EXTT9=
EXTT10=
EXTT11=
PLAYORDER=
